<?xml version="1.0" standalone="no"?>
<!DOCTYPE svg PUBLIC "-//W3C//DTD SVG 20010904//EN"
 "http://www.w3.org/TR/2001/REC-SVG-20010904/DTD/svg10.dtd">
<svg version="1.0" xmlns="http://www.w3.org/2000/svg"
 width="100%" height="100vh" viewBox="0 0 840.000000 1416.000000"
 preserveAspectRatio="xMidYMid meet">

<g transform="translate(0.000000,1416.000000) scale(0.100000,-0.100000)"
fill="#000000" stroke="none">
<path d="M7268 13725 c-21 -8 -57 -27 -80 -44 -75 -52 -6424 -6412 -6446
-6456 -47 -95 -46 -213 3 -303 19 -35 933 -955 3238 -3259 2917 -2915 3217
-3212 3267 -3233 166 -70 358 11 421 179 29 78 24 175 -13 251 -23 47 -493
520 -3108 3135 l-3080 3080 3089 3090 c3018 3019 3089 3091 3111 3150 29 80
24 178 -13 251 -33 64 -113 137 -174 158 -56 19 -164 20 -215 1z"/>
</g>
</svg>
